<svg width="42" height="41" viewBox="0 0 42 41" fill="none" xmlns="http://www.w3.org/2000/svg">
<path d="M39.6 18.7C39.4 17.7 37.8 16.5 35.4 15.6C37.6 14.5 38.4 14.2 38.4 14.2L38.3 13.8C38.3 13.8 37.6 13.8 33.8 15C32.3 14.6 30.6 14.2 28.9 14C25.9 13.6 23.1 13.5 21.1 13.5V4.5C21.1 4.5 19.9 5 19.4 5.2C18.8 5.5 18.9 6 18.9 6V6.4V13.5C18.6 13.5 18.4 13.5 18.4 13.5H18.3V8.2C18.3 8.2 17.1 8.7 16.6 8.9C16 9.2 16.1 9.7 16.1 9.7V10.1V13.6C8.80001 14.1 5.20001 15.9 4.00001 16.6C2.70001 17.3 0.60001 19.2 3.60001 21.3C6.10001 23 10.8 23.9 12.2 24.1C9.10001 25.7 7.30001 26.8 7.30001 26.8L7.50001 27.2C7.50001 27.2 14.2 24.6 21.6 24.6H21.7C24.8 24.6 28.2 24.2 30.8 23.7C37.5 22.6 39.9 20.5 39.6 18.7ZM14 23.3C14 23.3 8.8 22.7 6.20001 21C3.60001 19.3 5.40001 17.8 6.50001 17.2C7.30001 16.8 9.50001 15.7 13.5 15.1V15.3V15.7C13.5 15.7 13.5 20.4 13.5 21.9C13.5 22.5 13.9 22.7 14.3 22.5C14.7 22.3 15.1 22.2 15.3 22.1C15.8 21.9 15.7 21.5 15.7 21.5V14.8C15.9 14.8 16.1 14.8 16.3 14.7V21.6C16.3 21.6 17.6 21 18.1 20.8C18.6 20.6 18.5 20.2 18.5 20.2V14.6C18.7 14.6 18.8 14.6 19 14.6C19 14.6 19 14.6 19.1 14.6V20.4C19.1 20.4 20.4 19.8 20.9 19.6C21.4 19.4 21.3 19 21.3 19V14.5C22.9 14.5 25.3 14.6 27.9 14.9C29.3 15.1 30.7 15.4 32 15.7C30.4 16.3 28.5 17 26.1 17.9C21.5 19.7 17.4 21.6 14.3 23.2C14 23.3 14 23.3 14 23.3ZM29.5 23C27.9 23.3 25.8 23.4 23.8 23.5C24 23.2 26.6 20.1 31.6 17.5C32.4 17.1 33.1 16.7 33.8 16.4C35.6 17.1 36.8 17.9 37 18.7C37.2 20.3 35.1 22 29.5 23Z" fill="#4274D4"/>
<path d="M4.2002 35.9V29.3H5.5002L7.8002 33.5L10.2002 29.3H11.4002V35.9H10.2002V31.7L8.3002 35.2H7.4002L5.5002 31.7V35.9H4.2002Z" fill="#4274D4"/>
<path d="M16.9 34.2C17.4 34.2 17.8 34 18.1 33.8C18.4 33.5 18.6 33.1 18.6 32.7C18.6 32.3 18.4 31.9 18.1 31.6C17.8 31.3 17.3 31.1 16.9 31.1V34.2ZM15.6 31.1C15.1 31.1 14.7 31.2 14.4 31.6C14.1 31.9 13.9 32.3 13.9 32.7C13.9 33.1 14.1 33.5 14.4 33.8C14.7 34.1 15.2 34.2 15.6 34.2V31.1ZM15.6 29.2H16.9V29.9C17.8 29.9 18.5 30.2 19.1 30.7C19.7 31.2 20 31.9 20 32.7C20 33.5 19.7 34.1 19.1 34.7C18.5 35.2 17.8 35.5 16.9 35.5V36H15.6V35.3C14.7 35.3 14 35 13.4 34.5C12.8 34 12.5 33.3 12.5 32.5C12.5 31.7 12.8 31.1 13.4 30.5C14 30 14.7 29.7 15.6 29.7V29.2Z" fill="#4274D4"/>
<path d="M28.3 34.2C28.7 33.8 28.9 33.3 28.9 32.6C28.9 32 28.7 31.4 28.3 31C27.9 30.6 27.4 30.4 26.8 30.4C26.2 30.4 25.7 30.6 25.3 31C24.9 31.4 24.7 31.9 24.7 32.6C24.7 33.2 24.9 33.8 25.3 34.2C25.7 34.6 26.2 34.8 26.8 34.8C27.4 34.8 27.9 34.6 28.3 34.2ZM21.1 29.3H22.4V32H23.4C23.5 31.2 23.9 30.5 24.5 30C25.1 29.5 25.9 29.2 26.7 29.2C27.7 29.2 28.5 29.5 29.1 30.2C29.8 30.8 30.1 31.7 30.1 32.6C30.1 33.6 29.8 34.4 29.1 35C28.5 35.6 27.6 36 26.7 36C25.8 36 25.1 35.7 24.4 35.2C23.8 34.7 23.4 34 23.3 33.1H22.3V35.8H21V29.3H21.1Z" fill="#4274D4"/>
<path d="M34.0002 31.1L33.0002 33.5H35.0002L34.0002 31.1ZM30.7002 35.9L33.5002 29.3H34.5002L37.3002 35.9H36.0002L35.5002 34.7H32.5002L32.0002 35.9H30.7002Z" fill="#4274D4"/>
</svg>
